# Blender 4.3.2
# www.blender.org
mtllib 无标题.mtl
o 平面
v -2.799028 0.000000 2.799028
v 2.799028 0.000000 2.799028
v -2.799028 0.000000 -2.799028
v 2.799028 0.000000 -2.799028
v -2.799028 0.000000 -2.099271
v -2.799028 0.000000 -1.399514
v -2.799028 0.000000 -0.699757
v -2.799028 0.000000 0.000000
v -2.799028 0.000000 0.699757
v -2.799028 0.000000 1.399514
v -2.799028 0.000000 2.099271
v -2.099271 0.000000 2.799028
v -1.399514 0.000000 2.799028
v -0.699757 0.000000 2.799028
v 0.000000 0.000000 2.799028
v 0.699757 0.000000 2.799028
v 1.399514 0.000000 2.799028
v 2.099271 0.000000 2.799028
v 2.799028 0.000000 2.099271
v 2.799028 0.000000 1.399514
v 2.799028 0.000000 0.699757
v 2.799028 0.000000 0.000000
v 2.799028 0.000000 -0.699757
v 2.799028 0.000000 -1.399514
v 2.799028 0.000000 -2.099271
v 2.099271 0.000000 -2.799028
v 1.399514 0.000000 -2.799028
v 0.699757 0.000000 -2.799028
v 0.000000 0.000000 -2.799028
v -0.699757 0.000000 -2.799028
v -1.399514 0.000000 -2.799028
v -2.099271 0.000000 -2.799028
v -2.099271 0.000000 2.099271
v -2.099271 0.000000 1.399514
v -2.099271 0.000000 0.699757
v -2.099271 0.000000 0.000000
v -2.099271 0.000000 -0.699757
v -2.099271 0.000000 -1.399514
v -2.099271 0.000000 -2.099271
v -1.399514 0.000000 2.099271
v -1.399514 0.000000 1.399514
v -1.399514 0.000000 0.699757
v -1.399514 0.000000 0.000000
v -1.399514 0.000000 -0.699757
v -1.399514 0.000000 -1.399514
v -1.399514 0.000000 -2.099271
v -0.699757 0.000000 2.099271
v -0.699757 0.000000 1.399514
v -0.699757 0.000000 0.699757
v -0.699757 0.000000 0.000000
v -0.699757 0.000000 -0.699757
v -0.699757 0.000000 -1.399514
v -0.699757 0.000000 -2.099271
v 0.000000 0.000000 2.099271
v 0.000000 0.000000 1.399514
v 0.000000 0.000000 0.699757
v 0.000000 0.000000 0.000000
v 0.000000 0.000000 -0.699757
v 0.000000 0.000000 -1.399514
v 0.000000 0.000000 -2.099271
v 0.699757 0.000000 2.099271
v 0.699757 0.000000 1.399514
v 0.699757 0.000000 0.699757
v 0.699757 0.000000 0.000000
v 0.699757 0.000000 -0.699757
v 0.699757 0.000000 -1.399514
v 0.699757 0.000000 -2.099271
v 1.399514 0.000000 2.099271
v 1.399514 0.000000 1.399514
v 1.399514 0.000000 0.699757
v 1.399514 0.000000 0.000000
v 1.399514 0.000000 -0.699757
v 1.399514 0.000000 -1.399514
v 1.399514 0.000000 -2.099271
v 2.099271 0.000000 2.099271
v 2.099271 0.000000 1.399514
v 2.099271 0.000000 0.699757
v 2.099271 0.000000 0.000000
v 2.099271 0.000000 -0.699757
v 2.099271 0.000000 -1.399514
v 2.099271 0.000000 -2.099271
v -2.799028 0.196733 2.099271
v -2.799028 0.196733 2.799028
v 2.099271 0.196733 2.799028
v 2.799028 0.196733 2.799028
v 2.799028 0.196733 -2.099271
v 2.799028 0.196733 -2.799028
v -2.099271 0.196733 -2.799028
v -2.799028 0.196733 -2.799028
v -2.799028 0.196733 -2.099271
v -2.799028 0.196733 -1.399514
v -2.799028 0.196733 -0.699757
v -2.799028 0.196733 0.000000
v -2.799028 0.196733 0.699757
v -2.799028 0.196733 1.399514
v -2.099271 0.196733 2.799028
v -1.399514 0.196733 2.799028
v -0.699757 0.196733 2.799028
v 0.000000 0.196733 2.799028
v 0.699757 0.196733 2.799028
v 1.399514 0.196733 2.799028
v 2.799028 0.196733 2.099271
v 2.799028 0.196733 1.399514
v 2.799028 0.196733 0.699757
v 2.799028 0.196733 0.000000
v 2.799028 0.196733 -0.699757
v 2.799028 0.196733 -1.399514
v 2.099271 0.196733 -2.799028
v 1.399514 0.196733 -2.799028
v 0.699757 0.196733 -2.799028
v 0.000000 0.196733 -2.799028
v -0.699757 0.196733 -2.799028
v -1.399514 0.196733 -2.799028
v -2.099271 0.196733 -2.099271
v -2.099271 0.196733 2.099271
v -2.099271 0.196733 1.399514
v -2.099271 0.196733 0.699757
v -2.099271 0.196733 0.000000
v -2.099271 0.196733 -0.699757
v -2.099271 0.196733 -1.399514
v -1.399514 0.196733 -2.099271
v -1.399514 0.196733 2.099271
v -1.399514 0.196733 1.399514
v -1.399514 0.196733 0.699757
v -1.399514 0.196733 0.000000
v -1.399514 0.196733 -0.699757
v -1.399514 0.196733 -1.399514
v -0.699757 0.196733 -2.099271
v -0.699757 0.196733 2.099271
v -0.699757 0.196733 1.399514
v -0.699757 0.196733 0.699757
v -0.699757 0.196733 0.000000
v -0.699757 0.196733 -0.699757
v -0.699757 0.196733 -1.399514
v 0.000000 0.196733 -2.099271
v 0.000000 0.196733 2.099271
v 0.000000 0.196733 1.399514
v 0.000000 0.196733 0.699757
v 0.000000 0.196733 0.000000
v 0.000000 0.196733 -0.699757
v 0.000000 0.196733 -1.399514
v 0.699757 0.196733 -2.099271
v 0.699757 0.196733 2.099271
v 0.699757 0.196733 1.399514
v 0.699757 0.196733 0.699757
v 0.699757 0.196733 0.000000
v 0.699757 0.196733 -0.699757
v 0.699757 0.196733 -1.399514
v 1.399514 0.196733 -2.099271
v 1.399514 0.196733 2.099271
v 1.399514 0.196733 1.399514
v 1.399514 0.196733 0.699757
v 1.399514 0.196733 0.000000
v 1.399514 0.196733 -0.699757
v 1.399514 0.196733 -1.399514
v 2.099271 0.196733 -2.099271
v 2.099271 0.196733 2.099271
v 2.099271 0.196733 1.399514
v 2.099271 0.196733 0.699757
v 2.099271 0.196733 0.000000
v 2.099271 0.196733 -0.699757
v 2.099271 0.196733 -1.399514
v -2.099271 0.671687 0.000000
v -2.099271 0.671687 -0.699757
v -1.399514 0.671687 0.000000
v -1.399514 0.671687 -0.699757
v 0.699757 1.044703 2.099271
v 0.699757 1.044703 1.399514
v 1.399514 1.044703 2.099271
v 1.399514 1.044703 1.399514
v 1.399514 2.050775 -0.699757
v 1.399514 2.050775 -1.399514
v 2.099271 2.050775 -0.699757
v 2.099271 2.050775 -1.399514
vn -0.0000 -1.0000 -0.0000
vn -0.0000 1.0000 -0.0000
vn 1.0000 -0.0000 -0.0000
vn -0.0000 -0.0000 1.0000
vn -0.0000 -0.0000 -1.0000
vn -1.0000 -0.0000 -0.0000
vt 0.875000 0.875000
vt 0.875000 1.000000
vt 1.000000 1.000000
vt 1.000000 0.875000
vt 0.000000 0.875000
vt 0.000000 1.000000
vt 0.125000 1.000000
vt 0.125000 0.875000
vt 0.250000 1.000000
vt 0.250000 0.875000
vt 0.375000 1.000000
vt 0.375000 0.875000
vt 0.500000 1.000000
vt 0.500000 0.875000
vt 0.625000 1.000000
vt 0.625000 0.875000
vt 0.750000 1.000000
vt 0.750000 0.875000
vt 0.000000 0.000000
vt 0.000000 0.125000
vt 0.125000 0.125000
vt 0.125000 0.000000
vt 0.000000 0.250000
vt 0.125000 0.250000
vt 0.000000 0.375000
vt 0.125000 0.375000
vt 0.000000 0.500000
vt 0.125000 0.500000
vt 0.000000 0.625000
vt 0.125000 0.625000
vt 0.000000 0.750000
vt 0.125000 0.750000
vt 0.250000 0.125000
vt 0.250000 0.000000
vt 0.250000 0.250000
vt 0.250000 0.375000
vt 0.250000 0.500000
vt 0.250000 0.625000
vt 0.250000 0.750000
vt 0.375000 0.125000
vt 0.375000 0.000000
vt 0.375000 0.250000
vt 0.375000 0.375000
vt 0.375000 0.500000
vt 0.375000 0.625000
vt 0.375000 0.750000
vt 0.500000 0.125000
vt 0.500000 0.000000
vt 0.500000 0.250000
vt 0.500000 0.375000
vt 0.500000 0.500000
vt 0.500000 0.625000
vt 0.500000 0.750000
vt 0.625000 0.125000
vt 0.625000 0.000000
vt 0.625000 0.250000
vt 0.625000 0.375000
vt 0.625000 0.500000
vt 0.625000 0.625000
vt 0.625000 0.750000
vt 0.750000 0.125000
vt 0.750000 0.000000
vt 0.750000 0.250000
vt 0.750000 0.375000
vt 0.750000 0.500000
vt 0.750000 0.625000
vt 0.750000 0.750000
vt 0.875000 0.125000
vt 0.875000 0.000000
vt 0.875000 0.250000
vt 0.875000 0.375000
vt 0.875000 0.500000
vt 0.875000 0.625000
vt 0.875000 0.750000
vt 1.000000 0.125000
vt 1.000000 0.000000
vt 1.000000 0.250000
vt 1.000000 0.375000
vt 1.000000 0.500000
vt 1.000000 0.625000
vt 1.000000 0.750000
s 0
f 81/1/1 26/2/1 4/3/1 25/4/1
f 5/5/1 3/6/1 32/7/1 39/8/1
f 39/8/1 32/7/1 31/9/1 46/10/1
f 46/10/1 31/9/1 30/11/1 53/12/1
f 53/12/1 30/11/1 29/13/1 60/14/1
f 60/14/1 29/13/1 28/15/1 67/16/1
f 67/16/1 28/15/1 27/17/1 74/18/1
f 74/18/1 27/17/1 26/2/1 81/1/1
f 1/19/1 11/20/1 33/21/1 12/22/1
f 11/20/1 10/23/1 34/24/1 33/21/1
f 10/23/1 9/25/1 35/26/1 34/24/1
f 9/25/1 8/27/1 36/28/1 35/26/1
f 8/27/1 7/29/1 37/30/1 36/28/1
f 7/29/1 6/31/1 38/32/1 37/30/1
f 6/31/1 5/5/1 39/8/1 38/32/1
f 12/22/1 33/21/1 40/33/1 13/34/1
f 33/21/1 34/24/1 41/35/1 40/33/1
f 34/24/1 35/26/1 42/36/1 41/35/1
f 35/26/1 36/28/1 43/37/1 42/36/1
f 36/28/1 37/30/1 44/38/1 43/37/1
f 37/30/1 38/32/1 45/39/1 44/38/1
f 38/32/1 39/8/1 46/10/1 45/39/1
f 13/34/1 40/33/1 47/40/1 14/41/1
f 40/33/1 41/35/1 48/42/1 47/40/1
f 41/35/1 42/36/1 49/43/1 48/42/1
f 42/36/1 43/37/1 50/44/1 49/43/1
f 43/37/1 44/38/1 51/45/1 50/44/1
f 44/38/1 45/39/1 52/46/1 51/45/1
f 45/39/1 46/10/1 53/12/1 52/46/1
f 14/41/1 47/40/1 54/47/1 15/48/1
f 47/40/1 48/42/1 55/49/1 54/47/1
f 48/42/1 49/43/1 56/50/1 55/49/1
f 49/43/1 50/44/1 57/51/1 56/50/1
f 50/44/1 51/45/1 58/52/1 57/51/1
f 51/45/1 52/46/1 59/53/1 58/52/1
f 52/46/1 53/12/1 60/14/1 59/53/1
f 15/48/1 54/47/1 61/54/1 16/55/1
f 54/47/1 55/49/1 62/56/1 61/54/1
f 55/49/1 56/50/1 63/57/1 62/56/1
f 56/50/1 57/51/1 64/58/1 63/57/1
f 57/51/1 58/52/1 65/59/1 64/58/1
f 58/52/1 59/53/1 66/60/1 65/59/1
f 59/53/1 60/14/1 67/16/1 66/60/1
f 16/55/1 61/54/1 68/61/1 17/62/1
f 61/54/1 62/56/1 69/63/1 68/61/1
f 62/56/1 63/57/1 70/64/1 69/63/1
f 63/57/1 64/58/1 71/65/1 70/64/1
f 64/58/1 65/59/1 72/66/1 71/65/1
f 65/59/1 66/60/1 73/67/1 72/66/1
f 66/60/1 67/16/1 74/18/1 73/67/1
f 17/62/1 68/61/1 75/68/1 18/69/1
f 68/61/1 69/63/1 76/70/1 75/68/1
f 69/63/1 70/64/1 77/71/1 76/70/1
f 70/64/1 71/65/1 78/72/1 77/71/1
f 71/65/1 72/66/1 79/73/1 78/72/1
f 72/66/1 73/67/1 80/74/1 79/73/1
f 73/67/1 74/18/1 81/1/1 80/74/1
f 18/69/1 75/68/1 19/75/1 2/76/1
f 75/68/1 76/70/1 20/77/1 19/75/1
f 76/70/1 77/71/1 21/78/1 20/77/1
f 77/71/1 78/72/1 22/79/1 21/78/1
f 78/72/1 79/73/1 23/80/1 22/79/1
f 79/73/1 80/74/1 24/81/1 23/80/1
f 80/74/1 81/1/1 25/4/1 24/81/1
f 156/1/2 86/4/2 87/3/2 108/2/2
f 90/5/2 114/8/2 88/7/2 89/6/2
f 114/8/2 121/10/2 113/9/2 88/7/2
f 121/10/2 128/12/2 112/11/2 113/9/2
f 128/12/2 135/14/2 111/13/2 112/11/2
f 135/14/2 142/16/2 110/15/2 111/13/2
f 142/16/2 149/18/2 109/17/2 110/15/2
f 149/18/2 156/1/2 108/2/2 109/17/2
f 83/19/2 96/22/2 115/21/2 82/20/2
f 82/20/2 115/21/2 116/24/2 95/23/2
f 95/23/2 116/24/2 117/26/2 94/25/2
f 94/25/2 117/26/2 118/28/2 93/27/2
f 93/27/2 118/28/2 119/30/2 92/29/2
f 92/29/2 119/30/2 120/32/2 91/31/2
f 91/31/2 120/32/2 114/8/2 90/5/2
f 96/22/2 97/34/2 122/33/2 115/21/2
f 115/21/2 122/33/2 123/35/2 116/24/2
f 116/24/2 123/35/2 124/36/2 117/26/2
f 117/26/2 124/36/2 125/37/2 118/28/2
f 125/37/3 126/38/3 166/38/3 165/37/3
f 119/30/2 126/38/2 127/39/2 120/32/2
f 120/32/2 127/39/2 121/10/2 114/8/2
f 97/34/2 98/41/2 129/40/2 122/33/2
f 122/33/2 129/40/2 130/42/2 123/35/2
f 123/35/2 130/42/2 131/43/2 124/36/2
f 124/36/2 131/43/2 132/44/2 125/37/2
f 125/37/2 132/44/2 133/45/2 126/38/2
f 126/38/2 133/45/2 134/46/2 127/39/2
f 127/39/2 134/46/2 128/12/2 121/10/2
f 98/41/2 99/48/2 136/47/2 129/40/2
f 129/40/2 136/47/2 137/49/2 130/42/2
f 130/42/2 137/49/2 138/50/2 131/43/2
f 131/43/2 138/50/2 139/51/2 132/44/2
f 132/44/2 139/51/2 140/52/2 133/45/2
f 133/45/2 140/52/2 141/53/2 134/46/2
f 134/46/2 141/53/2 135/14/2 128/12/2
f 99/48/2 100/55/2 143/54/2 136/47/2
f 136/47/2 143/54/2 144/56/2 137/49/2
f 137/49/2 144/56/2 145/57/2 138/50/2
f 138/50/2 145/57/2 146/58/2 139/51/2
f 139/51/2 146/58/2 147/59/2 140/52/2
f 140/52/2 147/59/2 148/60/2 141/53/2
f 141/53/2 148/60/2 142/16/2 135/14/2
f 100/55/2 101/62/2 150/61/2 143/54/2
f 143/54/4 150/61/4 169/61/4 167/54/4
f 144/56/2 151/63/2 152/64/2 145/57/2
f 145/57/2 152/64/2 153/65/2 146/58/2
f 146/58/2 153/65/2 154/66/2 147/59/2
f 147/59/2 154/66/2 155/67/2 148/60/2
f 148/60/2 155/67/2 149/18/2 142/16/2
f 101/62/2 84/69/2 157/68/2 150/61/2
f 150/61/2 157/68/2 158/70/2 151/63/2
f 151/63/2 158/70/2 159/71/2 152/64/2
f 152/64/2 159/71/2 160/72/2 153/65/2
f 153/65/2 160/72/2 161/73/2 154/66/2
f 126/38/5 119/30/5 164/30/5 166/38/5
f 155/67/2 162/74/2 156/1/2 149/18/2
f 84/69/2 85/76/2 102/75/2 157/68/2
f 157/68/2 102/75/2 103/77/2 158/70/2
f 158/70/2 103/77/2 104/78/2 159/71/2
f 159/71/2 104/78/2 105/79/2 160/72/2
f 160/72/2 105/79/2 106/80/2 161/73/2
f 161/73/2 106/80/2 107/81/2 162/74/2
f 162/74/2 107/81/2 86/4/2 156/1/2
f 21/78/3 22/79/3 105/79/3 104/78/3
f 8/27/6 9/25/6 94/25/6 93/27/6
f 22/79/3 23/80/3 106/80/3 105/79/3
f 9/25/6 10/23/6 95/23/6 94/25/6
f 23/80/3 24/81/3 107/81/3 106/80/3
f 10/23/6 11/20/6 82/20/6 95/23/6
f 24/81/3 25/4/3 86/4/3 107/81/3
f 1/19/4 12/22/4 96/22/4 83/19/4
f 4/3/5 26/2/5 108/2/5 87/3/5
f 12/22/4 13/34/4 97/34/4 96/22/4
f 26/2/5 27/17/5 109/17/5 108/2/5
f 13/34/4 14/41/4 98/41/4 97/34/4
f 11/20/6 1/19/6 83/19/6 82/20/6
f 27/17/5 28/15/5 110/15/5 109/17/5
f 14/41/4 15/48/4 99/48/4 98/41/4
f 18/69/4 2/76/4 85/76/4 84/69/4
f 28/15/5 29/13/5 111/13/5 110/15/5
f 15/48/4 16/55/4 100/55/4 99/48/4
f 25/4/3 4/3/3 87/3/3 86/4/3
f 29/13/5 30/11/5 112/11/5 111/13/5
f 16/55/4 17/62/4 101/62/4 100/55/4
f 32/7/5 3/6/5 89/6/5 88/7/5
f 30/11/5 31/9/5 113/9/5 112/11/5
f 17/62/4 18/69/4 84/69/4 101/62/4
f 3/6/6 5/5/6 90/5/6 89/6/6
f 31/9/5 32/7/5 88/7/5 113/9/5
f 2/76/3 19/75/3 102/75/3 85/76/3
f 5/5/6 6/31/6 91/31/6 90/5/6
f 19/75/3 20/77/3 103/77/3 102/75/3
f 6/31/6 7/29/6 92/29/6 91/31/6
f 20/77/3 21/78/3 104/78/3 103/77/3
f 7/29/6 8/27/6 93/27/6 92/29/6
f 163/28/2 165/37/2 166/38/2 164/30/2
f 167/54/2 169/61/2 170/63/2 168/56/2
f 171/66/2 173/73/2 174/74/2 172/67/2
f 161/73/3 162/74/3 174/74/3 173/73/3
f 154/66/4 161/73/4 173/73/4 171/66/4
f 144/56/6 143/54/6 167/54/6 168/56/6
f 151/63/5 144/56/5 168/56/5 170/63/5
f 162/74/5 155/67/5 172/67/5 174/74/5
f 150/61/3 151/63/3 170/63/3 169/61/3
f 118/28/4 125/37/4 165/37/4 163/28/4
f 119/30/6 118/28/6 163/28/6 164/30/6
f 155/67/6 154/66/6 171/66/6 172/67/6
